<svg width="141" height="21" viewBox="0 0 141 21" fill="none" xmlns="http://www.w3.org/2000/svg">
<path d="M10.0813 15.1219C10.0813 12.338 12.338 10.0813 15.1219 10.0813H20.1625V15.1219C20.1625 17.9058 17.9058 20.1625 15.1219 20.1625V20.1625C12.338 20.1625 10.0813 17.9058 10.0813 15.1219V15.1219Z" fill="#FF7262"/>
<rect y="10.0813" width="10.0813" height="20.1625" rx="5.04063" transform="rotate(-90 0 10.0813)" fill="#F24E1E"/>
<path d="M10.0813 10.0813L10.0813 20.1625L5.04064 20.1625C2.25677 20.1625 5.38003e-06 17.9058 5.50171e-06 15.1219V15.1219C5.6234e-06 12.338 2.25677 10.0813 5.04064 10.0813L10.0813 10.0813Z" fill="#A259FF"/>
<path d="M20.1625 15.1219C20.1625 12.338 22.4193 10.0813 25.2032 10.0813V10.0813C27.987 10.0813 30.2438 12.338 30.2438 15.1219V15.1219C30.2438 17.9058 27.987 20.1625 25.2032 20.1625V20.1625C22.4193 20.1625 20.1625 17.9058 20.1625 15.1219V15.1219Z" fill="#1ABCFE"/>
<path d="M20.1625 10.0813V5.04064C20.1625 2.25677 22.4193 5.6234e-06 25.2032 5.50171e-06V5.50171e-06C27.987 5.38003e-06 30.2438 2.25677 30.2438 5.04064V5.04064C30.2438 7.8245 27.987 10.0813 25.2032 10.0813L20.1625 10.0813Z" fill="#0ACF83"/>
<path d="M43.8854 17.6825C42.7966 17.6825 41.7818 17.5078 40.8408 17.1583C39.9134 16.7954 39.1069 16.2846 38.4213 15.626C37.7358 14.9673 37.1981 14.1944 36.8083 13.3073C36.432 12.4201 36.2438 11.4456 36.2438 10.3837C36.2438 9.32181 36.432 8.34729 36.8083 7.46014C37.1981 6.57299 37.7358 5.80009 38.4213 5.14145C39.1203 4.48281 39.9335 3.97874 40.861 3.62926C41.7885 3.26633 42.8033 3.08487 43.9056 3.08487C45.1287 3.08487 46.231 3.29994 47.2122 3.73007C48.2069 4.14676 49.0403 4.76508 49.7124 5.58503L47.6155 7.52063C47.1316 6.96952 46.5939 6.55955 46.0025 6.29071C45.411 6.00844 44.7658 5.8673 44.0669 5.8673C43.4082 5.8673 42.8033 5.97483 42.2522 6.1899C41.7011 6.40497 41.2239 6.71413 40.8207 7.11738C40.4174 7.52063 40.1016 7.99781 39.873 8.54892C39.658 9.10003 39.5504 9.71162 39.5504 10.3837C39.5504 11.0558 39.658 11.6674 39.873 12.2185C40.1016 12.7696 40.4174 13.2468 40.8207 13.65C41.2239 14.0533 41.7011 14.3624 42.2522 14.5775C42.8033 14.7926 43.4082 14.9001 44.0669 14.9001C44.7658 14.9001 45.411 14.7657 46.0025 14.4969C46.5939 14.2146 47.1316 13.7912 47.6155 13.2266L49.7124 15.1622C49.0403 15.9822 48.2069 16.6072 47.2122 17.0373C46.231 17.4675 45.122 17.6825 43.8854 17.6825Z" fill="black"/>
<path d="M51.6963 17.4406V2.48H54.8417V17.4406H51.6963Z" fill="black"/>
<path d="M63.1442 17.6019C61.9076 17.6019 60.8188 17.3599 59.8779 16.876C58.9504 16.3921 58.2313 15.7335 57.7205 14.9001C57.2097 14.0533 56.9543 13.0922 56.9543 12.0169C56.9543 10.9281 57.203 9.96701 57.7003 9.13363C58.2111 8.2868 58.9034 7.62816 59.7771 7.1577C60.6508 6.6738 61.6388 6.43185 62.741 6.43185C63.8029 6.43185 64.7572 6.66036 65.6041 7.11738C66.4643 7.56095 67.1431 8.20615 67.6405 9.05298C68.1378 9.88636 68.3865 10.8878 68.3865 12.0572C68.3865 12.1782 68.3798 12.3193 68.3663 12.4806C68.3529 12.6285 68.3394 12.7696 68.326 12.904H59.515V11.0692H66.6727L65.4629 11.6136C65.4629 11.0491 65.3487 10.5584 65.1202 10.1418C64.8916 9.72506 64.5758 9.40246 64.1725 9.17395C63.7693 8.932 63.2988 8.81103 62.7611 8.81103C62.2235 8.81103 61.7463 8.932 61.3296 9.17395C60.9263 9.40246 60.6105 9.73178 60.382 10.1619C60.1534 10.5786 60.0392 11.076 60.0392 11.6539V12.1378C60.0392 12.7293 60.1669 13.2535 60.4223 13.7105C60.6911 14.1541 61.0608 14.4969 61.5312 14.7388C62.0151 14.9673 62.5797 15.0816 63.2249 15.0816C63.8029 15.0816 64.3069 14.9942 64.7371 14.8195C65.1806 14.6447 65.5839 14.3826 65.9468 14.0331L67.6203 15.8478C67.123 16.4123 66.4979 16.8492 65.7452 17.1583C64.9925 17.454 64.1255 17.6019 63.1442 17.6019Z" fill="black"/>
<path d="M76.8388 17.4406V15.3235L76.6372 14.8598V11.0692C76.6372 10.3971 76.4289 9.87292 76.0122 9.49655C75.6089 9.12019 74.9839 8.932 74.1371 8.932C73.5591 8.932 72.9878 9.0261 72.4232 9.21428C71.8721 9.38902 71.4017 9.63097 71.0119 9.94013L69.8828 7.74241C70.4742 7.32572 71.1866 7.00312 72.02 6.77461C72.8534 6.54611 73.7002 6.43185 74.5605 6.43185C76.2138 6.43185 77.4975 6.82166 78.4115 7.60128C79.3255 8.3809 79.7826 9.59737 79.7826 11.2507V17.4406H76.8388ZM73.5322 17.6019C72.6854 17.6019 71.9595 17.4608 71.3546 17.1785C70.7498 16.8828 70.286 16.4862 69.9634 15.9889C69.6408 15.4915 69.4795 14.9337 69.4795 14.3154C69.4795 13.6702 69.6341 13.1056 69.9432 12.6217C70.2658 12.1378 70.7699 11.7615 71.4554 11.4926C72.141 11.2104 73.0348 11.0692 74.1371 11.0692H77.0203V12.904H74.4798C73.7405 12.904 73.2297 13.025 72.9475 13.2669C72.6786 13.5089 72.5442 13.8113 72.5442 14.1743C72.5442 14.5775 72.6988 14.9001 73.008 15.1421C73.3306 15.3706 73.7674 15.4848 74.3185 15.4848C74.8427 15.4848 75.3132 15.3639 75.7299 15.1219C76.1466 14.8665 76.449 14.4969 76.6372 14.013L77.1211 15.4647C76.8926 16.1636 76.4759 16.6946 75.871 17.0575C75.2662 17.4204 74.4865 17.6019 73.5322 17.6019Z" fill="black"/>
<path d="M89.2224 6.43185C90.0827 6.43185 90.8488 6.60659 91.5209 6.95608C92.2065 7.29212 92.7441 7.81634 93.1339 8.52875C93.5237 9.22772 93.7186 10.1283 93.7186 11.2305V17.4406H90.5733V11.7144C90.5733 10.8407 90.3784 10.1955 89.9886 9.77883C89.6122 9.36214 89.0745 9.15379 88.3756 9.15379C87.8782 9.15379 87.4279 9.26133 87.0247 9.47639C86.6349 9.67802 86.3257 9.9939 86.0972 10.424C85.8821 10.8542 85.7746 11.4053 85.7746 12.0774V17.4406H82.6293V6.59315H85.6335V9.59737L85.0689 8.69005C85.4587 7.9642 86.0166 7.40637 86.7424 7.01656C87.4683 6.62676 88.2949 6.43185 89.2224 6.43185Z" fill="black"/>
<path d="M103.223 17.4406V15.3235L103.022 14.8598V11.0692C103.022 10.3971 102.813 9.87292 102.397 9.49655C101.993 9.12019 101.368 8.932 100.522 8.932C99.9436 8.932 99.3723 9.0261 98.8078 9.21428C98.2567 9.38902 97.7862 9.63097 97.3964 9.94013L96.2673 7.74241C96.8587 7.32572 97.5712 7.00312 98.4045 6.77461C99.2379 6.54611 100.085 6.43185 100.945 6.43185C102.598 6.43185 103.882 6.82166 104.796 7.60128C105.71 8.3809 106.167 9.59737 106.167 11.2507V17.4406H103.223ZM99.9167 17.6019C99.0699 17.6019 98.3441 17.4608 97.7392 17.1785C97.1343 16.8828 96.6706 16.4862 96.348 15.9889C96.0254 15.4915 95.8641 14.9337 95.8641 14.3154C95.8641 13.6702 96.0186 13.1056 96.3278 12.6217C96.6504 12.1378 97.1545 11.7615 97.84 11.4926C98.5255 11.2104 99.4194 11.0692 100.522 11.0692H103.405V12.904H100.864C100.125 12.904 99.6143 13.025 99.332 13.2669C99.0632 13.5089 98.9288 13.8113 98.9288 14.1743C98.9288 14.5775 99.0833 14.9001 99.3925 15.1421C99.7151 15.3706 100.152 15.4848 100.703 15.4848C101.227 15.4848 101.698 15.3639 102.114 15.1219C102.531 14.8665 102.834 14.4969 103.022 14.013L103.506 15.4647C103.277 16.1636 102.86 16.6946 102.256 17.0575C101.651 17.4204 100.871 17.6019 99.9167 17.6019Z" fill="black"/>
<path d="M109.014 17.4406V6.59315H112.018V9.65786L111.595 8.7707C111.917 8.00453 112.435 7.42654 113.147 7.03673C113.86 6.63348 114.727 6.43185 115.748 6.43185V9.33526C115.614 9.32181 115.493 9.31509 115.385 9.31509C115.278 9.30165 115.163 9.29493 115.042 9.29493C114.182 9.29493 113.483 9.5436 112.946 10.0409C112.421 10.5248 112.159 11.2843 112.159 12.3193V17.4406H109.014Z" fill="black"/>
<path d="M122.782 17.6019C121.612 17.6019 120.571 17.3667 119.657 16.8962C118.743 16.4123 118.023 15.7469 117.499 14.9001C116.988 14.0533 116.733 13.0922 116.733 12.0169C116.733 10.9281 116.988 9.96701 117.499 9.13363C118.023 8.2868 118.743 7.62816 119.657 7.1577C120.571 6.6738 121.612 6.43185 122.782 6.43185C123.924 6.43185 124.919 6.6738 125.766 7.1577C126.613 7.62816 127.238 8.30697 127.641 9.19412L125.201 10.5047C124.919 9.9939 124.563 9.61753 124.133 9.37558C123.716 9.13363 123.259 9.01265 122.762 9.01265C122.224 9.01265 121.74 9.13363 121.31 9.37558C120.88 9.61753 120.537 9.96029 120.282 10.4039C120.04 10.8474 119.919 11.3851 119.919 12.0169C119.919 12.6486 120.04 13.1863 120.282 13.6299C120.537 14.0734 120.88 14.4162 121.31 14.6582C121.74 14.9001 122.224 15.0211 122.762 15.0211C123.259 15.0211 123.716 14.9068 124.133 14.6783C124.563 14.4364 124.919 14.0533 125.201 13.5291L127.641 14.8598C127.238 15.7335 126.613 16.4123 125.766 16.8962C124.919 17.3667 123.924 17.6019 122.782 17.6019Z" fill="black"/>
<path d="M135.986 6.43185C136.846 6.43185 137.613 6.60659 138.285 6.95608C138.97 7.29212 139.508 7.81634 139.898 8.52875C140.287 9.22772 140.482 10.1283 140.482 11.2305V17.4406H137.337V11.7144C137.337 10.8407 137.142 10.1955 136.752 9.77883C136.376 9.36214 135.838 9.15379 135.139 9.15379C134.642 9.15379 134.192 9.26133 133.788 9.47639C133.399 9.67802 133.089 9.9939 132.861 10.424C132.646 10.8542 132.538 11.4053 132.538 12.0774V17.4406H129.393V2.48H132.538V9.59737L131.833 8.69005C132.222 7.9642 132.78 7.40637 133.506 7.01656C134.232 6.62676 135.059 6.43185 135.986 6.43185Z" fill="black"/>
</svg>
